<svg id="Capa_1" data-name="Capa 1" xmlns="http://www.w3.org/2000/svg" viewBox="0 0 458.86 512"><title>quote-icon</title><path d="M193.46,492a20,20,0,0,1-20,20H106.57a80.09,80.09,0,0,1-80-80V80a80.09,80.09,0,0,1,80-80H352.46a80.09,80.09,0,0,1,80,80V203a20,20,0,1,1-40,0V80a40,40,0,0,0-40-40H106.57a40,40,0,0,0-40,40V432a40,40,0,0,0,40,40h66.89A20,20,0,0,1,193.46,492Zm139-372h-206a20,20,0,1,0,0,40h206a20,20,0,0,0,0-40Zm20,100a20,20,0,0,0-20-20h-206a20,20,0,1,0,0,40h206A20,20,0,0,0,352.46,220Zm-226,60a20,20,0,1,0,0,40H251.57a20,20,0,0,0,0-40Zm341.43,94.43L358.31,483.79a20,20,0,0,1-8.79,5.12L268.8,511.27a20,20,0,0,1-24.48-25.08l23.91-78.73a20,20,0,0,1,5-8.34L383.05,289.56a60,60,0,0,1,84.84,84.87Zm-60.46,3.82L379.14,350l-74.09,73.93L293.16,463l40.62-11.25Zm32.17-60.39a20,20,0,0,0-28.28,0l-3.86,3.85L435.74,350l3.88-3.87A20,20,0,0,0,439.6,317.86Z" transform="translate(-26.57)"/></svg>