<svg id="Isolation_Mode" data-name="Isolation Mode" xmlns="http://www.w3.org/2000/svg" viewBox="0 0 385.53 451.95"><title>travel-icon</title><path d="M776.92,1734.8c-24.37-2.51-51.48-26.44-66-39.3-5.46-4.82-9.18-8.11-12.63-10.35a67.17,67.17,0,0,0-25.74-10.94,54.41,54.41,0,1,0-20.1-.61c-6.31.75-16.49,2.71-29.11,12.12h0a88.3,88.3,0,0,0-10.58,9.65c-15.33,15.94-52.28,57.44-71.31,105.26a37.38,37.38,0,0,0-.72,25.36l-6,10.76-12.43-7a27.4,27.4,0,0,0-37.31,10.43l-56.52,99.88,0,0,0,0a27.4,27.4,0,0,0,10.52,37.33l10.31,5.8a37,37,0,1,0,72.65-11.62l25.84-45.33,0-.06,0-.06,21.57-38.44,23-39.92a37.58,37.58,0,0,0,16.22-15.31,49.59,49.59,0,0,0,4.6,16.1c-3.22,5.87-7,12.72-11,20.17-16.13,29.5-38.22,69.9-47.69,86.32a42,42,0,0,0,36.32,62.9c1,0,2,0,3-.11A42,42,0,0,0,627.07,1997c6.26-10.86,16.94-31.5,28.24-53.36,4.91-9.5,9.89-19.13,14.55-28,10.41,19.52,23.08,45,37.41,77.43a41.93,41.93,0,1,0,76.69-34c-26.49-59.9-47-96.45-58.07-114.93a49.73,49.73,0,0,0,3.56-23.42l-1.84-21.14a169.45,169.45,0,0,0,41.69,9.25,38.38,38.38,0,0,0,3.86.2,37.23,37.23,0,0,0,3.76-74.27ZM629.66,1620.47a34.4,34.4,0,1,1,34.4,34.4A34.44,34.44,0,0,1,629.66,1620.47Zm160.62,153.14a17.24,17.24,0,0,1-17.12,15.46c-.6,0-1.2,0-1.81-.09-32.89-3.41-52.16-13.34-66.93-25.13l5.1,58.63a30.38,30.38,0,0,1-6.85,22c12,19.42,33.63,56.3,63,122.73a21.91,21.91,0,0,1-11.17,28.92,21.94,21.94,0,0,1-29-11.18c-24.92-56.29-44.56-91.54-56.09-110.7-14.38,24.86-47.16,91-59.73,112.78A21.93,21.93,0,0,1,592.3,1998q-.78.06-1.56.06a21.94,21.94,0,0,1-19-32.9c13.49-23.4,50.86-92.25,64.74-117.43a30,30,0,0,1-8.14-18.19L623,1767.62c-11.43,15.36-23.26,33.9-30.91,53.14a17.21,17.21,0,0,1-13.32,10.65l-26.81,46.47-21.63,38.54-30.87,54.17a17,17,0,1,1-28.18,2.15L448.63,1960a7.42,7.42,0,0,1-2.84-10.1L502.33,1850a7.4,7.4,0,0,1,10.09-2.81L542.3,1864l21.2-37.79A17.22,17.22,0,0,1,560,1808c18.06-45.39,54.33-85.52,67.42-99.09a71.44,71.44,0,0,1,7.83-7.19c10.52-7.84,17.7-8.08,22.42-8.6a28.24,28.24,0,0,1,3.13-.17,35.94,35.94,0,0,1,6.58.61,46.69,46.69,0,0,1,19.69,8.14c9.68,6,48.15,48.88,87.82,53A17.26,17.26,0,0,1,790.28,1773.61Z" transform="translate(-424.83 -1566.07)"/></svg>